<svg id="color" height="512" viewBox="0 0 24 24" width="512" xmlns="http://www.w3.org/2000/svg"><g fill="#2196f3"><path d="m12 18c-1.059 0-2.115-.254-3.166-.762-.507-.246-.834-.771-.834-1.338 0-2.15 1.795-3.9 4-3.9s4 1.75 4 3.9c0 .566-.327 1.092-.834 1.338-1.051.508-2.108.762-3.166.762"/><path d="m8.467 9.034c-.252-1.213.025-2.626 1.041-2.978.355-.123.745-.082 1.094.116.559.317 1 1.033 1.183 1.917.251 1.212-.026 2.624-1.041 2.977-.782.271-1.909-.255-2.277-2.032"/><path d="m13.336 11.065c-1.015-.353-1.292-1.765-1.041-2.977.183-.883.625-1.6 1.182-1.917.35-.198.738-.239 1.095-.116 1.015.352 1.292 1.765 1.042 2.978-.37 1.779-1.496 2.303-2.278 2.032"/><path d="m5.126 11.811c-.57-.941-.518-2.188.392-2.687.818-.45 1.938-.011 2.549.997.686 1.131.372 2.268-.391 2.687-.883.487-1.997-.085-2.55-.997"/><path d="m16.324 12.808c-.902-.496-.965-1.739-.391-2.688.611-1.009 1.73-1.449 2.549-.997.903.496.966 1.739.392 2.687-.559.922-1.671 1.481-2.55.998z"/></g><path d="m1.5 12c0-5.79 4.71-10.5 10.5-10.5 2.571 0 4.982.93 6.863 2.576l-.643.644c-.472.47-.139 1.28.53 1.28h2.5c.414 0 .75-.336.75-.75v-2.5c0-.663-.806-1.004-1.28-.53l-.796.796c-2.163-1.927-4.95-3.016-7.924-3.016-6.617 0-12 5.383-12 12 0 1.173.173 2.339.513 3.467.119.395.534.62.934.502.396-.12.621-.539.501-.936-.297-.986-.448-2.008-.448-3.033" fill="#eceff1"/><path d="m23.487 8.534c-.12-.396-.535-.623-.935-.502-.396.12-.621.538-.501.935.298.987.449 2.007.449 3.033 0 5.789-4.71 10.5-10.5 10.5-2.571 0-4.982-.93-6.863-2.576l.643-.644c.472-.47.139-1.28-.53-1.28h-2.5c-.414 0-.75.336-.75.75v2.5c0 .667.811 1 1.28.53l.796-.796c2.163 1.926 4.95 3.016 7.924 3.016 6.617 0 12-5.383 12-12 0-1.173-.173-2.339-.513-3.466" fill="#eceff1"/><path d="m12 12c-2.205 0-4 1.75-4 3.9 0 .566.327 1.092.834 1.338 1.051.508 2.107.762 3.166.762z" fill="#1d83d4"/><path d="m9.922 5.987c-.14 0-.279.023-.414.07-1.016.351-1.293 1.764-1.041 2.977.308 1.488 1.148 2.099 1.872 2.099.141 0 .277-.023.404-.067 1.015-.353 1.292-1.765 1.041-2.977-.183-.883-.624-1.6-1.183-1.917-.216-.123-.449-.185-.679-.185" fill="#1d83d4"/><path d="m6.219 8.947c-.245 0-.484.057-.701.177-.909.5-.962 1.746-.392 2.687.414.683 1.142 1.175 1.852 1.175.239 0 .475-.056.698-.178.763-.419 1.076-1.556.391-2.687-.449-.741-1.172-1.174-1.848-1.174" fill="#1d83d4"/><path d="m12 0c-6.617 0-12 5.383-12 12 0 1.173.173 2.339.513 3.467.097.323.394.533.718.533.071 0 .144-.01.216-.031.396-.12.621-.539.501-.936-.297-.986-.448-2.008-.448-3.033 0-5.79 4.71-10.5 10.5-10.5z" fill="#cdd0d2"/><path d="m5.25 18h-2.5c-.414 0-.75.336-.75.75v2.5c0 .452.371.75.757.75.184 0 .371-.068.523-.22l.796-.796c2.163 1.926 4.95 3.016 7.924 3.016v-1.5c-2.571 0-4.982-.93-6.863-2.576l.643-.644c.472-.47.139-1.28-.53-1.28" fill="#cdd0d2"/></svg>